<?xml version="1.0" encoding="utf-8"?>
<!DOCTYPE svg PUBLIC "-//W3C//DTD SVG 1.1//EN" "http://www.w3.org/Graphics/SVG/1.1/DTD/svg11.dtd">
<svg version="1.1" xmlns="http://www.w3.org/2000/svg" xmlns:xlink="http://www.w3.org/1999/xlink" viewBox="0 0 195 195">
    <g fill="#cbbd5c;">
        <rect fill="#001b26" height="195" width="195"/>
    </g>
    <g transform="translate(-911.000000,466.000000) scale(0.100000,-0.100000)" fill="#cbbd5c">
        <path d="M10029 4231 c-37 -37 -38 -79 -3 -120 14 -17 32 -31 41 -31 11 0 13 -7 9 -27 -3 -16 -15 -84 -26 -153 -11 -69 -23 -140 -26 -159 l-6 -35 -34 65 c-19 35 -58 107 -86 160 l-51 97 21 30 c40 55 23 117 -38 142 -24 10 -36 10 -60 0 -89 -37 -75 -157 20 -176 16 -4 30 -9 30 -13 0 -4 13 -83 30 -176 16 -93 28 -170 27 -172 -3 -2 -49 40 -230 207 -35 33 -37 37 -26 66 24 62 -16 124 -80 124 -85 -1 -121 -92 -61 -152 27 -26 36 -30 69 -25 l38 5 87 -156 c47 -85 84 -157 82 -159 -2 -3 -76 26 -163 64 -158 69 -158 69 -161 104 -5 65 -39 99 -98 99 -34 0 -84 -51 -84 -85 0 -30 16 -65 39 -82 20 -15 76 -17 102 -2 25 13 41 3 132 -84 80 -77 116 -148 124 -249 l6 -68 436 0 437 0 12 81 c7 51 22 99 39 131 35 64 180 202 202 192 9 -4 33 -9 54 -12 46 -5 79 15 97 58 12 28 11 36 -4 65 -48 88 -162 65 -173 -35 -5 -44 -7 -46 -62 -69 -31 -14 -78 -35 -106 -47 -113 -50 -156 -67 -160 -63 -3 4 15 38 137 251 l38 66 39 -5 c35 -5 44 -2 71 25 40 41 41 83 1 123 -37 37 -84 39 -125 6 -31 -25 -39 -68 -23 -113 6 -18 -12 -39 -121 -142 -71 -67 -131 -119 -134 -117 -2 3 1 31 8 64 6 32 20 111 30 175 l19 116 32 6 c39 7 71 40 79 81 5 25 0 37 -23 62 -15 17 -43 34 -60 37 -28 6 -38 1 -69 -30 -31 -31 -36 -41 -30 -68 3 -18 16 -42 27 -54 l21 -23 -40 -73 c-22 -40 -59 -109 -82 -153 -24 -44 -46 -83 -50 -88 -5 -6 -61 315 -60 350 0 6 9 15 21 18 24 8 59 61 59 90 -1 23 -27 57 -57 74 -37 19 -73 13 -104 -18z"/>
    </g>
</svg>