<?xml version="1.0" encoding="utf-8"?>
<!DOCTYPE svg PUBLIC "-//W3C//DTD SVG 1.1//EN" "http://www.w3.org/Graphics/SVG/1.1/DTD/svg11.dtd">
<svg version="1.1" xmlns="http://www.w3.org/2000/svg" xmlns:xlink="http://www.w3.org/1999/xlink" viewBox="0 0 1822 466">
    <g fill="#cbbd5c;">
        <rect fill="#001b26" height="466" width="1822"/>
    </g>
    <g transform="translate(0.000000,466.000000) scale(0.100000,-0.100000)" fill="#cbbd5c">
        <path d="M10029 4231 c-37 -37 -38 -79 -3 -120 14 -17 32 -31 41 -31 11 0 13 -7 9 -27 -3 -16 -15 -84 -26 -153 -11 -69 -23 -140 -26 -159 l-6 -35 -34 65 c-19 35 -58 107 -86 160 l-51 97 21 30 c40 55 23 117 -38 142 -24 10 -36 10 -60 0 -89 -37 -75 -157 20 -176 16 -4 30 -9 30 -13 0 -4 13 -83 30 -176 16 -93 28 -170 27 -172 -3 -2 -49 40 -230 207 -35 33 -37 37 -26 66 24 62 -16 124 -80 124 -85 -1 -121 -92 -61 -152 27 -26 36 -30 69 -25 l38 5 87 -156 c47 -85 84 -157 82 -159 -2 -3 -76 26 -163 64 -158 69 -158 69 -161 104 -5 65 -39 99 -98 99 -34 0 -84 -51 -84 -85 0 -30 16 -65 39 -82 20 -15 76 -17 102 -2 25 13 41 3 132 -84 80 -77 116 -148 124 -249 l6 -68 436 0 437 0 12 81 c7 51 22 99 39 131 35 64 180 202 202 192 9 -4 33 -9 54 -12 46 -5 79 15 97 58 12 28 11 36 -4 65 -48 88 -162 65 -173 -35 -5 -44 -7 -46 -62 -69 -31 -14 -78 -35 -106 -47 -113 -50 -156 -67 -160 -63 -3 4 15 38 137 251 l38 66 39 -5 c35 -5 44 -2 71 25 40 41 41 83 1 123 -37 37 -84 39 -125 6 -31 -25 -39 -68 -23 -113 6 -18 -12 -39 -121 -142 -71 -67 -131 -119 -134 -117 -2 3 1 31 8 64 6 32 20 111 30 175 l19 116 32 6 c39 7 71 40 79 81 5 25 0 37 -23 62 -15 17 -43 34 -60 37 -28 6 -38 1 -69 -30 -31 -31 -36 -41 -30 -68 3 -18 16 -42 27 -54 l21 -23 -40 -73 c-22 -40 -59 -109 -82 -153 -24 -44 -46 -83 -50 -88 -5 -6 -61 315 -60 350 0 6 9 15 21 18 24 8 59 61 59 90 -1 23 -27 57 -57 74 -37 19 -73 13 -104 -18z"/>
    </g>
    <g transform="translate(0.000000,466.000000) scale(0.100000,-0.100000)" fill="#cbbd5c">
        <path d="M540 1805 l0 -1165 915 0 915 0 0 265 0 265 -590 0 -590 0 0 205 0 205 560 0 560 0 0 260 0 260 -560 0 -560 0 0 170 0 170 580 0 580 0 0 265 0 265 -905 0 -905 0 0 -1165z"/>
    </g>
    <g transform="translate(0.000000,466.000000) scale(0.100000,-0.100000)" fill="#cbbd5c">
        <path d="M2610 1804 l0 -1165 543 4 c500 4 549 6 632 24 484 110 778 420 835 883 13 107 13 351 0 500 -46 524 -369 841 -925 909 -54 7 -288 11 -587 11 l-498 0 0 -1166z m1061 622 c127 -27 217 -94 259 -192 39 -91 50 -181 50 -427 0 -199 -3 -245 -19 -310 -46 -176 -134 -268 -302 -312 -37 -10 -109 -15 -226 -15 l-173 0 0 635 0 635 173 0 c109 0 196 -5 238 -14z"/>
    </g>
    <g transform="translate(0.000000,466.000000) scale(0.100000,-0.100000)" fill="#cbbd5c">
        <path d="M4910 1805 l0 -1165 325 0 325 0 0 1165 0 1165 -325 0 -325 0 0 -1165z"/>
    </g>
    <g transform="translate(0.000000,466.000000) scale(0.100000,-0.100000)" fill="#cbbd5c">
        <path d="M5860 1805 l0 -1165 870 0 870 0 0 265 0 265 -545 0 -545 0 0 900 0 900 -325 0 -325 0 0 -1165z"/>
    </g>
    <g transform="translate(0.000000,466.000000) scale(0.100000,-0.100000)" fill="#ffffff">
        <path d="M7820 1805 l0 -1165 325 0 325 0 0 470 0 470 525 0 525 0 0 265 0 265 -525 0 -525 0 0 165 0 165 545 0 545 0 0 265 0 265 -870 0 -870 0 0 -1165z"/>
    </g>
    <g transform="translate(0.000000,466.000000) scale(0.100000,-0.100000)" fill="#ffffff">
        <path d="M9800 1805 l0 -1165 325 0 325 0 0 1165 0 1165 -325 0 -325 0 0 -1165z"/>
    </g>
    <g transform="translate(0.000000,466.000000) scale(0.100000,-0.100000)" fill="#ffffff">
        <path d="M10740 1805 l0 -1165 295 0 295 0 2 632 3 632 109 -350 c60 -192 128 -410 151 -484 24 -74 64 -201 89 -282 l47 -148 288 0 288 0 57 178 c32 97 126 388 209 645 l152 469 3 -646 2 -646 285 0 285 0 0 1165 0 1165 -407 -2 -406 -3 -18 -55 c-25 -80 -193 -600 -249 -775 -27 -82 -81 -249 -120 -370 -39 -121 -73 -227 -76 -235 -3 -8 -25 46 -49 120 -63 196 -134 420 -286 898 l-134 422 -407 0 -408 0 0 -1165z"/>
    </g>
    <g transform="translate(0.000000,466.000000) scale(0.100000,-0.100000)" fill="#ffffff">
        <path d="M13600 1805 l0 -1165 915 0 915 0 0 265 0 265 -590 0 -590 0 0 200 0 200 560 0 560 0 0 265 0 265 -560 0 -560 0 0 170 0 170 585 0 585 0 0 265 0 265 -910 0 -910 0 0 -1165z"/>
    </g>
    <g transform="translate(0.000000,466.000000) scale(0.100000,-0.100000)" fill="#ffffff">
        <path d="M15670 1806 l0 -1166 325 0 325 0 0 440 0 440 108 0 108 0 146 -248 c80 -136 197 -334 259 -439 l114 -192 363 -1 364 0 -20 33 c-27 43 -87 145 -265 447 -83 140 -185 314 -227 385 l-77 130 71 39 c84 46 221 179 254 246 46 95 54 132 59 275 3 77 1 169 -5 205 -45 286 -270 475 -652 546 -82 15 -176 18 -672 22 l-578 4 0 -1166z m1155 630 c31 -9 64 -30 85 -51 34 -35 35 -38 39 -133 4 -121 -9 -151 -83 -187 -69 -33 -159 -45 -363 -45 l-173 0 0 221 0 222 223 -6 c162 -3 235 -9 272 -21z"/>
    </g>
</svg>